<svg xmlns="http://www.w3.org/2000/svg" viewBox="0 0 222.6 237.8"><defs><style>.cls-1,.cls-19{fill:#bebec0;}.cls-1,.cls-10,.cls-11,.cls-12,.cls-13,.cls-14,.cls-15,.cls-18,.cls-2,.cls-5,.cls-6,.cls-7,.cls-8,.cls-9{fill-rule:evenodd;}.cls-2{fill:#fff;}.cls-10,.cls-3{fill:#b38c61;}.cls-4,.cls-5{fill:#a27b52;}.cls-17,.cls-6{fill:#754d2a;}.cls-16,.cls-7{fill:#4c3523;}.cls-8{fill:#c3996c;}.cls-9{fill:#bb9165;}.cls-11{fill:#ae875b;}.cls-12{fill:#906f52;}.cls-13{fill:#d0ac89;}.cls-14{fill:#c6a380;}.cls-15{fill:#5d3f26;}.cls-18{fill:#949599;}</style></defs><title>Ativo 1</title><g id="Camada_2" data-name="Camada 2"><g id="Layer_1" data-name="Layer 1"><path class="cls-1" d="M24.23,83.14,102.34,5.56a15.71,15.71,0,0,1,21.6,0l78.11,77.58a9.47,9.47,0,0,1,7.13,9.23,9.81,9.81,0,0,1-5,8.39l10.69,10.59a10.2,10.2,0,0,1,7.76,9.86,10.07,10.07,0,0,1-10.06,10.06H185.9v73.81h4.51a6,6,0,0,1,6,6v10.38a5.91,5.91,0,0,1-6,6h-2.72v4.4a6.07,6.07,0,0,1-6.09,6H156.34a6,6,0,0,1-6-6v-4.4H131.8v4.4a6.07,6.07,0,0,1-6.08,6H100.55a6.07,6.07,0,0,1-6.08-6v-4.4H75.91v4.4a6,6,0,0,1-6,6H44.67a6,6,0,0,1-6-6v-4.4H35.86a6,6,0,0,1-6-6V211.06a6,6,0,0,1,6-6h4.61V131.27H13.74A10.07,10.07,0,0,1,3.67,121.21a10.2,10.2,0,0,1,7.76-9.86l10.7-10.59a9.79,9.79,0,0,1-5-8.39,9.49,9.49,0,0,1,7.14-9.23Z"/><path class="cls-2" d="M20.56,81.89,98.67,4.3a15.71,15.71,0,0,1,21.6,0l78.11,77.59a9.55,9.55,0,0,1,7.13,9.22,9.81,9.81,0,0,1-5,8.39l10.8,10.7A10.05,10.05,0,0,1,208.86,130H182.23v73.82h4.51a6,6,0,0,1,6,6.08v10.27a6,6,0,0,1-6,6.09H184v4.29a6.06,6.06,0,0,1-6.08,6H152.66a6,6,0,0,1-6-6v-4.29H128.13v4.29a6,6,0,0,1-6,6H96.88a6.07,6.07,0,0,1-6.08-6v-4.29H72.24v4.29a6,6,0,0,1-6,6H41a6,6,0,0,1-6-6v-4.29H32.19a6.07,6.07,0,0,1-6-6.09V209.91a6.06,6.06,0,0,1,6-6.08H36.8V130H10.07A10,10,0,0,1,7.76,110.2l10.7-10.7a9.69,9.69,0,0,1-4.93-8.39,9.46,9.46,0,0,1,7-9.22Z"/><rect class="cls-3" x="42.78" y="119.84" width="133.37" height="90.07"/><rect class="cls-4" x="42.78" y="119.84" width="133.37" height="7.34"/><path class="cls-5" d="M42.78,200.37v9.54H176.15V119.84s-15.51,54.31-133.37,80.53Z"/><path class="cls-6" d="M109.47,139.76a24.07,24.07,0,0,1,24,24v49.39h-48V163.77a24.07,24.07,0,0,1,24-24Z"/><path class="cls-7" d="M109.47,143h0a20.78,20.78,0,0,0-20.66,20.76v46.14h41.42V163.77A20.81,20.81,0,0,0,109.47,143Z"/><polygon class="cls-6" points="16.15 110.3 202.78 110.3 208.45 115.86 208.45 124.04 10.49 124.04 10.49 115.86 16.15 110.3"/><path class="cls-8" d="M10.49,115.86,102,25.06a10.33,10.33,0,0,1,7.44-2.94A10.61,10.61,0,0,1,117,25.06l91.43,90.8Z"/><path class="cls-9" d="M10.49,115.86l10.91-10.7C140.61,85.76,134,41.94,134,41.94l74.45,73.92Z"/><path class="cls-10" d="M113.56,22.86a11.87,11.87,0,0,1,3.46,2.2l91.43,90.8H146.16Z"/><path class="cls-11" d="M208.45,115.86H146.17L127,61c8.18-10.9,7-19.08,7-19.08Z"/><path class="cls-6" d="M10.07,115.86h198.8A4.09,4.09,0,0,1,213,120h0a4.09,4.09,0,0,1-4.08,4.09H10.07a4.07,4.07,0,0,1-4-4.09h0a4.07,4.07,0,0,1,4-4.09Z"/><path class="cls-12" d="M10.07,115.86h62.7V124H10.07a4.07,4.07,0,0,1-4-4.09h0a4.07,4.07,0,0,1,4-4.09Z"/><path class="cls-13" d="M105.38,22.86a10.25,10.25,0,0,0-3.36,2.2l-91.53,90.8H72.77Z"/><path class="cls-14" d="M10.49,115.86H72.77L81.89,90c-15.31,5.77-35,11-60.49,15.2Z"/><path class="cls-15" d="M208.87,115.86h-62.7V124h62.7A4.09,4.09,0,0,0,213,120h0a4.09,4.09,0,0,0-4.08-4.09Z"/><rect class="cls-16" x="143.65" y="147.84" width="22.96" height="21.07"/><rect class="cls-17" x="142.81" y="147.31" width="24.64" height="1.78"/><rect class="cls-17" x="142.81" y="167.65" width="24.64" height="1.78"/><rect class="cls-17" x="165.25" y="146.05" width="1.47" height="24.64"/><rect class="cls-17" x="143.55" y="146.05" width="1.57" height="24.64"/><rect class="cls-16" x="52.32" y="147.84" width="22.96" height="21.07"/><rect class="cls-17" x="51.49" y="147.31" width="24.64" height="1.78"/><rect class="cls-17" x="51.49" y="167.65" width="24.64" height="1.78"/><rect class="cls-17" x="73.92" y="146.05" width="1.57" height="24.64"/><rect class="cls-17" x="52.22" y="146.05" width="1.57" height="24.64"/><polygon class="cls-6" points="28.32 82.73 190.73 82.73 195.55 87.55 195.55 94.57 23.39 94.57 23.39 87.55 28.32 82.73"/><path class="cls-8" d="M23.39,87.55,103,8.6A8.93,8.93,0,0,1,109.47,6a9.33,9.33,0,0,1,6.6,2.62l79.48,79Z"/><path class="cls-9" d="M23.39,87.55l9.43-9.33c103.7-16.88,97.93-55,97.93-55l64.8,64.38Z"/><path class="cls-10" d="M113,6.6a9.44,9.44,0,0,1,3,2l79.48,79h-54.1Z"/><path class="cls-11" d="M195.55,87.55h-54.1L124.67,39.84c7.13-9.54,6.08-16.67,6.08-16.67Z"/><path class="cls-6" d="M23.07,87.55H196a3.51,3.51,0,0,1,3.46,3.56h0A3.49,3.49,0,0,1,196,94.57H23.07a3.51,3.51,0,0,1-3.56-3.46h0a3.53,3.53,0,0,1,3.56-3.56Z"/><path class="cls-12" d="M23.07,87.55H77.59v7H23.07a3.51,3.51,0,0,1-3.56-3.46h0a3.53,3.53,0,0,1,3.56-3.56Z"/><path class="cls-13" d="M106,6.6a8.57,8.57,0,0,0-3,2l-79.58,79h54.2Z"/><path class="cls-14" d="M23.39,87.55h54.2L85.46,65c-13.32,5-30.41,9.54-52.64,13.21Z"/><path class="cls-15" d="M196,87.55H141.45v7H196a3.49,3.49,0,0,0,3.46-3.46h0A3.51,3.51,0,0,0,196,87.55Z"/><polygon class="cls-18" points="32.19 209.91 186.74 209.91 186.74 220.18 177.94 220.18 177.94 230.56 152.67 230.56 152.67 220.18 122.16 220.18 122.16 230.56 96.89 230.56 96.89 220.18 66.27 220.18 66.27 230.56 41 230.56 41 220.18 32.19 220.18 32.19 209.91"/><rect class="cls-19" x="32.19" y="209.91" width="154.55" height="3.25"/><rect class="cls-19" x="41" y="220.18" width="12.69" height="10.38"/><rect class="cls-19" x="96.89" y="220.18" width="12.58" height="10.38"/><rect class="cls-19" x="152.67" y="220.18" width="12.69" height="10.38"/></g></g></svg>